<mxfile host="app.diagrams.net" modified="2024-06-14T12:25:11.633Z" agent="Mozilla/5.0 (Windows NT 10.0; Win64; x64) AppleWebKit/537.36 (KHTML, like Gecko) Chrome/125.0.0.0 Safari/537.36" version="24.5.4" etag="QljNCbLbWPnnDnpZJA2X" type="github">
  <diagram name="Page-1" id="KoB6UGZvOtTfHLuDVVxN">
    <mxGraphModel>
      <root>
        <mxCell id="0" />
        <mxCell id="1" parent="0" />
      </root>
    </mxGraphModel>
  </diagram>
</mxfile>
